<svg xmlns="http://www.w3.org/2000/svg" width="64" height="48" fill="none" viewBox="0 0 64 48"><path fill="#fff" d="M40.575 0a37 37 0 0 0-1.68 3.397 49 49 0 0 0-14.497 0A34 34 0 0 0 22.718 0a52.8 52.8 0 0 0-13.07 4.028C1.39 16.265-.846 28.186.266 39.943a52.5 52.5 0 0 0 16.025 8.044 38.5 38.5 0 0 0 3.435-5.53 35 35 0 0 1-5.405-2.577c.454-.328.896-.67 1.326-.998a37.63 37.63 0 0 0 32.038 0c.43.354.871.695 1.326.998a34.4 34.4 0 0 1-5.418 2.589A38.5 38.5 0 0 0 47.028 48a52.5 52.5 0 0 0 16.025-8.032c1.314-13.638-2.247-25.458-9.408-35.927A52 52 0 0 0 40.588.025zM21.14 32.707c-3.12 0-5.708-2.829-5.708-6.327s2.488-6.339 5.696-6.339 5.758 2.854 5.707 6.34c-.05 3.485-2.513 6.326-5.695 6.326m21.039 0c-3.132 0-5.696-2.829-5.696-6.327s2.488-6.339 5.696-6.339 5.746 2.854 5.695 6.34c-.05 3.485-2.513 6.326-5.695 6.326"/></svg>