<svg xmlns="http://www.w3.org/2000/svg" width="72" height="72" fill="none" viewBox="0 0 72 72"><rect width="71" height="71" x=".5" y=".5" stroke="url(#a)" stroke-opacity=".5" rx="35.5"/><path fill="#fff" d="M46.5 50.087v-9.86h1.648l5.141 7.17-.028-7.17h1.592v9.86h-1.507l-5.283-7.368.028 7.368zm-9.307 0v-9.86h7.058v1.436h-5.367v2.747h3.747v1.409h-3.747v2.831h5.423v1.437zm-9.046-1.465h1.958q.888 0 1.606-.45.719-.465 1.141-1.255a3.7 3.7 0 0 0 .423-1.76q0-.987-.423-1.761a3.23 3.23 0 0 0-1.141-1.24 2.9 2.9 0 0 0-1.606-.465h-1.958zm-1.69 1.465v-9.86h3.606q1.07 0 1.972.38a4.7 4.7 0 0 1 1.564 1.056q.675.662 1.042 1.564.366.887.366 1.93t-.366 1.944a4.8 4.8 0 0 1-1.042 1.563 4.9 4.9 0 0 1-1.564 1.043 5 5 0 0 1-1.972.38zm-9.307 0v-9.86h7.058v1.436h-5.367v2.747h3.747v1.409h-3.747v2.831h5.423v1.437zM53.941 36v-8.396h-3.296V26.14h8.283v1.465h-3.296V36zm-13.327 0v-9.86h1.69v4.14h4.902v-4.14h1.69V36h-1.69v-4.212h-4.902V36zm-6.9.155a5 5 0 0 1-1.986-.395 5.3 5.3 0 0 1-1.62-1.084 5.3 5.3 0 0 1-1.085-1.62 5.2 5.2 0 0 1-.38-1.986q0-1.057.38-1.973.395-.93 1.085-1.62a5 5 0 0 1 1.606-1.098 5 5 0 0 1 1.986-.395q1.184 0 2.226.451 1.056.45 1.76 1.31l-1.182 1.057a3.25 3.25 0 0 0-1.24-.958 3.7 3.7 0 0 0-1.564-.338q-.718 0-1.324.267a3.1 3.1 0 0 0-1.056.76q-.437.48-.69 1.128a3.8 3.8 0 0 0-.254 1.409q0 .76.253 1.422.254.648.705 1.127.465.48 1.07.761.606.268 1.338.268.79 0 1.423-.324a2.9 2.9 0 0 0 1.043-.93q.422-.592.521-1.324h-2.93v-1.451h4.719v.55q0 1.07-.366 1.971a4.9 4.9 0 0 1-1 1.592q-.648.676-1.522 1.057a4.9 4.9 0 0 1-1.916.366M24.835 36v-9.86h1.69V36zm-10.928 0v-9.86h1.648l5.142 7.17-.028-7.17h1.592V36h-1.508l-5.282-7.367.028 7.367z" opacity=".83" style="mix-blend-mode:plus-lighter"/><defs><linearGradient id="a" x1="10.565" x2="61.435" y1="10.565" y2="61.435" gradientUnits="userSpaceOnUse"><stop stop-color="#fff"/><stop offset=".4" stop-color="#fff" stop-opacity="0"/><stop offset=".6" stop-color="#fff" stop-opacity="0"/><stop offset="1" stop-color="#fff"/></linearGradient></defs></svg>